<svg width="60" height="60" viewBox="0 0 60 60" fill="none" xmlns="http://www.w3.org/2000/svg">
<rect x="0.618896" y="0.618896" width="59.2378" height="59.2378" rx="14.8094" fill="#FFF8ED"/>
<path fill-rule="evenodd" clip-rule="evenodd" d="M21.9075 20.982C21.9075 18.426 23.9795 16.354 26.5355 16.354H33.9402C36.4961 16.354 38.5681 18.426 38.5681 20.982H43.1961C45.752 20.982 47.824 23.054 47.824 25.6099V39.4938C47.824 42.0497 45.752 44.1217 43.1961 44.1217H17.2796C14.7236 44.1217 12.6516 42.0497 12.6516 39.4938V25.6099C12.6516 23.054 14.7236 20.982 17.2796 20.982L21.9075 20.982ZM30.2378 40.4193C34.8385 40.4193 38.5682 36.6897 38.5682 32.089C38.5682 27.4883 34.8385 23.7587 30.2378 23.7587C25.6371 23.7587 21.9075 27.4883 21.9075 32.089C21.9075 36.6897 25.6371 40.4193 30.2378 40.4193Z" fill="#E3B983"/>
<circle cx="30.2378" cy="32.0889" r="4.62795" fill="#E3B983"/>
</svg>
