<svg width="33" height="32" viewBox="0 0 33 32" fill="none" xmlns="http://www.w3.org/2000/svg">
<path fill-rule="evenodd" clip-rule="evenodd" d="M14.2438 4.49805C9.27531 4.49805 5.24756 8.52579 5.24756 13.4943V20.9911C5.24756 25.9596 9.27531 29.9874 14.2438 29.9874H21.7406C26.7091 29.9874 30.7369 25.9596 30.7369 20.9911V13.4943C30.7369 8.5258 26.7091 4.49805 21.7406 4.49805H14.2438ZM11.3165 9.8173C10.9025 9.8173 10.5668 10.1529 10.5668 10.567V16.6359C10.5668 17.0499 10.9025 17.3856 11.3165 17.3856C11.7305 17.3856 12.0662 17.0499 12.0662 16.6359V12.3769L22.8581 23.1688H18.5992C18.1851 23.1688 17.8495 23.5045 17.8495 23.9185C17.8495 24.3326 18.1851 24.6682 18.5992 24.6682H24.668C25.0821 24.6682 25.4177 24.3326 25.4177 23.9185V17.8496C25.4177 17.4356 25.0821 17.1 24.668 17.1C24.254 17.1 23.9184 17.4356 23.9184 17.8496V22.1086L13.1264 11.3167H17.3854C17.7994 11.3167 18.1351 10.981 18.1351 10.567C18.1351 10.1529 17.7994 9.8173 17.3854 9.8173H11.3165Z" fill="#E3B983"/>
</svg>
