<svg width="33" height="32" viewBox="0 0 33 32" fill="none" xmlns="http://www.w3.org/2000/svg">
<path fill-rule="evenodd" clip-rule="evenodd" d="M17.595 27.345C19.8931 25.479 26.0829 19.8483 26.0829 13.3333C26.0829 8.17868 21.9043 4 16.7496 4C11.5949 4 7.41626 8.17868 7.41626 13.3333C7.41626 19.8483 13.6061 25.479 15.9042 27.345C16.4015 27.7488 17.0977 27.7488 17.595 27.345ZM16.7497 17.3335C18.9589 17.3335 20.7497 15.5426 20.7497 13.3335C20.7497 11.1243 18.9589 9.33346 16.7497 9.33346C14.5406 9.33346 12.7497 11.1243 12.7497 13.3335C12.7497 15.5426 14.5406 17.3335 16.7497 17.3335Z" fill="#E3B983"/>
</svg>
