<svg width="33" height="32" viewBox="0 0 33 32" fill="none" xmlns="http://www.w3.org/2000/svg">
<path d="M16.7493 20.2665C19.1057 20.2665 21.016 18.3562 21.016 15.9998C21.016 13.6434 19.1057 11.7332 16.7493 11.7332C14.3929 11.7332 12.4827 13.6434 12.4827 15.9998C12.4827 18.3562 14.3929 20.2665 16.7493 20.2665Z" fill="#E3B983"/>
<path d="M12.7496 2.66675L10.3096 5.33341H6.08293C4.61626 5.33341 3.41626 6.53341 3.41626 8.00008V24.0001C3.41626 25.4667 4.61626 26.6667 6.08293 26.6667H27.4163C28.8829 26.6667 30.0829 25.4667 30.0829 24.0001V8.00008C30.0829 6.53341 28.8829 5.33341 27.4163 5.33341H23.1896L20.7496 2.66675H12.7496ZM16.7496 22.6667C13.0696 22.6667 10.0829 19.6801 10.0829 16.0001C10.0829 12.3201 13.0696 9.33342 16.7496 9.33342C20.4296 9.33342 23.4163 12.3201 23.4163 16.0001C23.4163 19.6801 20.4296 22.6667 16.7496 22.6667Z" fill="#E3B983"/>
</svg>
