<svg width="172" height="86" viewBox="0 0 172 86" fill="none" xmlns="http://www.w3.org/2000/svg">
<path d="M44.3995 73.6681L70.7292 34.1269H44.3813V73.6681H44.3995ZM58.7694 32.5821L46.6582 18.3153L58.4 5.54482H44.3934V32.5821H58.7694ZM60.5315 5.54482L48.7656 18.3274L60.8767 32.5821H71.4013V5.54482H60.5315ZM33.2814 66.0349C33.2866 67.0071 33.1686 67.976 32.9302 68.9185C32.7015 69.8076 32.3488 70.66 31.8826 71.4508C31.413 72.2392 30.8317 72.9555 30.1568 73.5772C29.3081 74.3736 28.3209 75.008 27.244 75.4491H42.8735V34.1269H22.6236C21.1485 34.1367 19.6912 34.4501 18.3423 35.0477C16.2181 35.986 14.5252 37.6905 13.6008 39.8215C13.1517 40.9255 12.9233 42.1069 12.9286 43.2988C12.9242 44.6033 13.2514 45.8874 13.8794 47.0306C14.5041 48.158 15.3243 49.1652 16.3016 50.0051C17.2918 50.8576 18.365 51.6085 19.505 52.2467C20.6387 52.8865 21.805 53.4669 22.9991 53.9853C24.2951 54.5449 25.5533 55.1884 26.7657 55.9118C27.9682 56.6257 29.0804 57.482 30.0781 58.4622C31.042 59.4068 31.8223 60.5222 32.3792 61.7518C32.9727 63.1008 33.2721 64.561 33.2572 66.0349H33.2814ZM20.0137 75.4491C21.7929 75.5054 23.5671 75.2301 25.2457 74.6374C26.428 74.2233 27.5301 73.6085 28.5036 72.8199C29.4814 72.0141 30.2639 70.9971 30.7926 69.8454C31.3223 68.6713 31.589 67.3956 31.5738 66.1076C31.5873 64.8165 31.31 63.5389 30.7623 62.3697C30.225 61.257 29.4929 60.2496 28.6005 59.3952C27.709 58.5303 26.7216 57.7701 25.6575 57.1295C24.5754 56.4731 23.4483 55.8941 22.2845 55.3968C20.8932 54.8014 19.5366 54.1279 18.2212 53.3795C16.9396 52.6554 15.7432 51.7898 14.6545 50.7988C13.6565 49.875 12.8356 48.7766 12.2323 47.5577C11.6087 46.2595 11.2897 44.836 11.2997 43.3958C11.2969 42.415 11.419 41.4378 11.6631 40.4879C11.8962 39.5764 12.2549 38.7017 12.7288 37.889C13.72 36.255 15.1599 34.9407 16.8769 34.1027H1.58656V75.4249L20.0137 75.4491ZM0.0302705 32.9395L43.4185 4H73V33.5877L44.0725 77H0V32.9395H0.0302705ZM42.8735 6.21726L3.34265 32.5821H42.8735V6.21726Z" fill="#2A303E"/>
<path d="M88.6953 28.7268C88.6953 26.4938 87.0279 25.7918 85.1049 25.0616C83.5939 24.4916 82.4713 24.0157 82.4713 22.5365C82.4713 21.3964 83.4186 20.4636 85.1049 20.4636C86.0354 20.471 86.9462 20.7317 87.7384 21.2174L88.2642 20.2139C87.2761 19.6497 86.1542 19.3585 85.0149 19.3706C82.5186 19.3706 81.0977 20.7839 81.0977 22.5365C81.0977 24.6517 82.6797 25.4055 84.5081 26.0839C86.1091 26.6775 87.3027 27.224 87.3027 28.7033C87.3027 30.1166 86.0901 30.9787 84.2807 30.9787C83.242 30.9565 82.2231 30.6919 81.3061 30.2061L80.7803 31.252C81.8709 31.8076 83.079 32.0966 84.3044 32.0953C87.0279 32.0953 88.6953 30.7526 88.6953 28.7268ZM150.187 53.9641V45.5219C150.187 42.992 148.538 41.4703 145.45 41.4703C143.958 41.4517 142.478 41.7371 141.102 42.3089V53.9641H142.452V43.0862C143.412 42.7391 144.428 42.5684 145.45 42.5821C147.695 42.5821 148.813 43.7693 148.813 45.5878V53.9641H150.187ZM138.113 46.5442C138.113 43.3123 136.218 41.4703 133.376 41.4703C130.151 41.4703 128.166 44.0426 128.166 47.8209C128.166 51.9855 130.383 54.1902 133.907 54.1902C135.238 54.2224 136.557 53.9347 137.753 53.3517L137.279 52.3011C136.246 52.8252 135.1 53.092 133.94 53.0784C131.33 53.0784 129.639 51.552 129.454 48.5464L138.103 47.2744C138.103 47.0011 138.103 46.7703 138.103 46.5442H138.113ZM136.81 46.4547L129.345 47.5241C129.416 44.5184 130.904 42.5397 133.329 42.5397C135.389 42.5397 136.763 43.7929 136.787 46.4547H136.81ZM125.134 53.9641V45.5219C125.134 42.9025 123.349 41.4939 120.535 41.4939C119.449 41.511 118.383 41.7838 117.423 42.29V36.0997H116.073V53.9641H117.423V43.4443C118.314 42.933 119.322 42.6588 120.35 42.6481C122.435 42.6481 123.784 43.5903 123.784 45.6067V53.983L125.134 53.9641ZM113.293 53.3517L112.819 52.3247C112.115 52.784 111.292 53.0295 110.451 53.0313C108.594 53.0313 106.538 51.6651 106.538 47.8209C106.538 43.9766 108.57 42.6057 110.451 42.6057C111.292 42.6075 112.115 42.8531 112.819 43.3124L113.293 42.3089C112.416 41.7563 111.399 41.4653 110.361 41.4703C107.869 41.4703 105.15 43.2464 105.15 47.8209C105.15 52.3953 107.85 54.1902 110.361 54.1902C111.399 54.1995 112.418 53.9082 113.293 53.3517ZM103.133 53.9406V52.7816C102.887 52.8581 102.632 52.8963 102.375 52.8947C101.276 52.8947 100.338 52.3247 100.338 50.9585V42.7188H103.133V41.6965H100.338V38.1443L99.0354 38.6484V41.6965H97.1123V42.7188H99.0307V51.0056C99.0307 53.0784 100.333 54.0772 102.166 54.0772C102.488 54.094 102.81 54.0475 103.114 53.9406H103.133ZM94.6872 38.0312C94.6872 37.7813 94.5873 37.5417 94.4097 37.365C94.232 37.1883 93.9911 37.089 93.7398 37.089C93.4886 37.089 93.2476 37.1883 93.0699 37.365C92.8923 37.5417 92.7925 37.7813 92.7925 38.0312C92.7925 38.2811 92.8923 38.5208 93.0699 38.6975C93.2476 38.8742 93.4886 38.9734 93.7398 38.9734C93.9911 38.9734 94.232 38.8742 94.4097 38.6975C94.5873 38.5208 94.6872 38.2811 94.6872 38.0312ZM94.4124 53.9641V41.7153H93.0625V53.9641H94.4124ZM90.751 53.9641L85.067 47.5476L90.4336 41.6965H88.7426L83.3997 47.5194L89.041 53.9641H90.751ZM82.7886 36.0997H81.4813V53.9641H82.7886V36.0997ZM150.187 32.0058V20.228C149.044 19.6583 147.78 19.3691 146.502 19.3848C143.295 19.3848 140.756 21.2079 140.756 25.5751C140.756 29.344 142.954 31.4263 146.042 31.4263C147.012 31.4306 147.971 31.2282 148.856 30.8327V32.0199C148.856 34.4555 147.619 35.8406 145.218 35.8406C144.067 35.822 142.935 35.5501 141.902 35.0444L141.429 36.1138C142.645 36.6912 143.974 36.9952 145.322 37.0042C148.458 37.0042 150.22 35.1575 150.22 32.0199L150.187 32.0058ZM148.856 29.7491C148.019 30.1131 147.116 30.2993 146.203 30.2956C143.835 30.2956 142.106 28.7033 142.106 25.5421C142.106 21.8769 144.076 20.4871 146.454 20.4871C147.278 20.4815 148.095 20.6417 148.856 20.9583V29.7633V29.7491ZM137.758 31.8691V23.4222C137.758 20.897 136.109 19.3706 133.021 19.3706C131.529 19.3533 130.049 19.6403 128.673 20.2139V31.8691H130.023V20.9865C130.984 20.6414 131.999 20.4722 133.021 20.4871C135.266 20.4871 136.389 21.6696 136.389 23.4928V31.8691H137.758ZM125.371 15.9362C125.371 15.6863 125.271 15.4467 125.094 15.27C124.916 15.0933 124.675 14.994 124.424 14.994C124.173 14.994 123.932 15.0933 123.754 15.27C123.576 15.4467 123.477 15.6863 123.477 15.9362C123.477 16.1861 123.576 16.4258 123.754 16.6025C123.932 16.7792 124.173 16.8785 124.424 16.8785C124.675 16.8785 124.916 16.7792 125.094 16.6025C125.271 16.4258 125.371 16.1861 125.371 15.9362ZM125.097 31.8691V19.6203H123.747V31.8691H125.097ZM121.317 19.4177C120.966 19.3798 120.613 19.3641 120.26 19.3706C118.796 19.3581 117.345 19.6452 115.997 20.2139V31.8691H117.347V20.9865C118.225 20.6569 119.157 20.497 120.095 20.5154C120.401 20.5148 120.706 20.5368 121.009 20.5814L121.307 19.4224L121.317 19.4177ZM112.525 31.252V23.2196C112.525 20.3929 110.673 19.3706 108.087 19.3706C106.779 19.3885 105.489 19.6756 104.298 20.2139L104.71 21.2174C105.738 20.7257 106.861 20.4606 108.002 20.44C109.835 20.44 111.232 21.0572 111.232 23.1254V24.1948C107.5 24.4021 103.564 24.859 103.564 28.4348C103.564 30.6678 105.212 32.1 108.438 32.1C109.849 32.1237 111.249 31.8357 112.535 31.2567L112.525 31.252ZM111.223 30.5689C110.312 30.8955 109.349 31.0551 108.381 31.04C105.979 31.04 104.833 29.9941 104.833 28.4206C104.833 25.5563 108.243 25.3961 111.199 25.2359V30.583L111.223 30.5689ZM100.693 31.8691V23.4222C100.693 20.8075 98.9075 19.3942 96.0892 19.3942C95.0036 19.4141 93.9377 19.6868 92.9772 20.1904V14H91.6273V31.8691H92.9772V21.3304C93.8687 20.817 94.879 20.5427 95.9092 20.5343C97.9886 20.5343 99.3433 21.4765 99.3433 23.4928V31.8691H100.693Z" fill="#2A303E"/>
<path d="M89.0514 70.5134C89.0514 71.5352 88.6549 72.3588 87.8618 72.9841C87.084 73.5942 86.0164 73.8992 84.6591 73.8992C83.2865 73.8992 82.1121 73.617 81.136 73.0527L81.6622 72.0004C82.5315 72.5189 83.5229 72.7782 84.6362 72.7782C85.5513 72.7782 86.2833 72.5723 86.8324 72.1605C87.3814 71.7488 87.6559 71.1921 87.6559 70.4905C87.6559 69.8195 87.4272 69.3009 86.9696 68.9349C86.5273 68.5689 85.8258 68.2105 84.865 67.8597C83.7364 67.4327 82.8823 66.9751 82.3028 66.4871C81.7385 65.9838 81.4563 65.2517 81.4563 64.2909C81.4563 63.3758 81.8071 62.6209 82.5086 62.0261C83.2102 61.416 84.1634 61.111 85.3683 61.111C86.6189 61.111 87.7017 61.3932 88.6168 61.9575L88.0906 62.964C87.3433 62.4607 86.4663 62.2091 85.4598 62.2091C84.6514 62.2091 84.0109 62.4074 83.5381 62.8039C83.0653 63.2004 82.8289 63.6961 82.8289 64.2909C82.8289 64.962 83.0348 65.4652 83.4466 65.8008C83.8736 66.1363 84.5447 66.4795 85.4598 66.8302C86.0546 67.059 86.5197 67.2573 86.8552 67.425C87.1908 67.5775 87.5492 67.7987 87.9305 68.0885C88.327 68.3782 88.6091 68.7214 88.7769 69.1179C88.9599 69.5144 89.0514 69.9796 89.0514 70.5134ZM96.9979 73.6475C96.7997 73.739 96.4794 73.7848 96.0371 73.7848C95.0915 73.7848 94.329 73.5255 93.7494 73.007C93.1851 72.4732 92.903 71.703 92.903 70.6964V62.3692H90.9813V61.3398H92.903V58.2743L94.2069 57.771V61.3398H96.9979V62.3692H94.2069V70.6507C94.2069 71.3065 94.3976 71.7945 94.7789 72.1148C95.1601 72.4351 95.6482 72.5952 96.243 72.5952C96.548 72.5952 96.7997 72.5571 96.9979 72.4808V73.6475ZM108.594 73.0527C107.496 73.617 106.062 73.8992 104.293 73.8992C101.258 73.8992 99.7406 72.4961 99.7406 69.6898V61.3398H101.09V69.7127C101.09 71.7411 102.158 72.7553 104.293 72.7553C105.528 72.7553 106.512 72.5876 107.244 72.252V61.3398H108.594V73.0527ZM121.152 73.0527C120.801 73.2815 120.267 73.4798 119.55 73.6475C118.849 73.8153 118.147 73.8992 117.446 73.8992C115.646 73.8992 114.243 73.3349 113.236 72.2063C112.23 71.0777 111.726 69.5755 111.726 67.6996C111.726 65.7779 112.222 64.2223 113.213 63.0327C114.22 61.8278 115.615 61.2254 117.4 61.2254C118.361 61.2254 119.161 61.3474 119.802 61.5914V55.7121H121.152V73.0527ZM119.802 72.2978V62.6895C119.207 62.4607 118.429 62.3464 117.468 62.3464C116.065 62.3464 114.982 62.842 114.22 63.8334C113.457 64.8094 113.076 66.0905 113.076 67.6767C113.076 69.2323 113.45 70.4753 114.197 71.4056C114.96 72.3207 116.035 72.7782 117.423 72.7782C117.85 72.7782 118.3 72.7325 118.772 72.641C119.26 72.5342 119.604 72.4198 119.802 72.2978ZM126.226 56.9932C126.409 57.1762 126.501 57.3973 126.501 57.6566C126.501 57.9159 126.409 58.137 126.226 58.32C126.043 58.5031 125.822 58.5946 125.563 58.5946C125.304 58.5946 125.075 58.5031 124.877 58.32C124.694 58.137 124.602 57.9159 124.602 57.6566C124.602 57.3973 124.694 57.1762 124.877 56.9932C125.075 56.8102 125.304 56.7187 125.563 56.7187C125.822 56.7187 126.043 56.8102 126.226 56.9932ZM126.226 73.6704H124.877V61.3398H126.226V73.6704ZM138.295 62.8954C139.18 64.0698 139.622 65.6025 139.622 67.4937C139.622 69.3848 139.18 70.9252 138.295 72.1148C137.411 73.3044 136.16 73.8992 134.543 73.8992C132.927 73.8992 131.676 73.3044 130.792 72.1148C129.907 70.9252 129.465 69.3848 129.465 67.4937C129.465 65.6025 129.907 64.0698 130.792 62.8954C131.676 61.7058 132.927 61.111 134.543 61.111C136.16 61.111 137.411 61.7058 138.295 62.8954ZM137.312 71.3141C137.952 70.3533 138.272 69.0798 138.272 67.4937C138.272 65.9075 137.952 64.6341 137.312 63.6732C136.686 62.7124 135.764 62.232 134.543 62.232C133.323 62.232 132.393 62.7124 131.753 63.6732C131.127 64.6341 130.815 65.9075 130.815 67.4937C130.815 69.0798 131.127 70.3533 131.753 71.3141C132.393 72.2749 133.323 72.7553 134.543 72.7553C135.764 72.7553 136.686 72.2749 137.312 71.3141Z" fill="#2A303E"/>
<path d="M167.091 32V32C169.25 32 171 30.2498 171 28.0909V11.2815C171 8.52006 168.761 6.28148 166 6.28148H157.663L155.364 1H142.947L140.647 6.28148H132.363C129.953 6.28148 128 8.23485 128 10.6444V10.6444" stroke="#2A303E" stroke-width="1.5"/>
<path d="M140.265 16.5C142.042 13.2242 145.511 11 149.5 11C155.299 11 160 15.701 160 21.5C160 25.0681 158.22 28.2205 155.5 30.118" stroke="#2A303E" stroke-width="1.5"/>
</svg>
