<svg width="60" height="60" viewBox="0 0 60 60" fill="none" xmlns="http://www.w3.org/2000/svg">
<rect x="0.618896" y="0.618896" width="59.2378" height="59.2378" rx="14.8094" fill="#FFF8ED"/>
<path fill-rule="evenodd" clip-rule="evenodd" d="M44.1217 25.6099C44.1217 26.7254 43.9902 27.8101 43.7418 28.8494H43.7731C42.3801 33.6588 40.4754 36.7246 36.8081 41.5524C34.9605 43.9847 33.0332 46.058 31.6629 47.4161C30.8221 48.2495 29.5714 48.3124 28.727 47.4827C27.6049 46.3802 25.8885 44.5089 23.5113 41.5524C20.1896 37.4212 18.4711 33.8582 17.5374 31.2274C16.7766 29.5099 16.354 27.6093 16.354 25.6099C16.354 17.9421 22.57 11.7261 30.2379 11.7261C37.9057 11.7261 44.1217 17.9421 44.1217 25.6099ZM30.2378 31.9623C33.7462 31.9623 36.5902 29.1182 36.5902 25.6099C36.5902 22.1015 33.7462 19.2575 30.2378 19.2575C26.7295 19.2575 23.8854 22.1015 23.8854 25.6099C23.8854 29.1182 26.7295 31.9623 30.2378 31.9623Z" fill="#E3B983"/>
</svg>
