<svg width="60" height="60" viewBox="0 0 60 60" fill="none" xmlns="http://www.w3.org/2000/svg">
<rect x="0.618896" y="0.618896" width="59.2378" height="59.2378" rx="14.8094" fill="#FFF8ED"/>
<path fill-rule="evenodd" clip-rule="evenodd" d="M43.734 15.697C43.734 16.3879 43.6525 17.0598 43.4986 17.7035H43.5181C42.6553 20.6824 41.4756 22.5812 39.2042 25.5715C38.2812 26.7865 37.3261 27.8569 36.5459 28.6669C35.7246 29.5195 34.488 29.5656 33.6722 28.7078C33.0037 28.0049 32.1089 26.9898 30.9685 25.5715C28.9108 23.0124 27.8465 20.8053 27.2682 19.1758C26.7971 18.1122 26.5354 16.9351 26.5354 15.697C26.5354 10.9477 30.3854 7.09766 35.1347 7.09766C39.884 7.09766 43.734 10.9477 43.734 15.697ZM35.1347 19.6316C37.3076 19.6316 39.0692 17.87 39.0692 15.6971C39.0692 13.5241 37.3076 11.7626 35.1347 11.7626C32.9617 11.7626 31.2002 13.5241 31.2002 15.6971C31.2002 17.87 32.9617 19.6316 35.1347 19.6316Z" fill="#E3B983"/>
<path d="M12.6517 19.5933H13.5192C13.8426 19.5933 14.1425 19.7621 14.3104 20.0385L21.054 31.1456C21.4285 31.7624 20.9844 32.5515 20.2628 32.5515H12.6517C12.1405 32.5515 11.7261 32.1371 11.7261 31.6259V20.5189C11.7261 20.0077 12.1405 19.5933 12.6517 19.5933Z" fill="#E3B983"/>
<path d="M12.189 42.733V35.7911C12.189 35.2799 12.6034 34.8655 13.1146 34.8655H22.2996C22.6299 34.8655 22.9351 35.0415 23.1006 35.3273L27.1196 42.2692C27.4769 42.8863 27.0316 43.6586 26.3186 43.6586H13.1146C12.6034 43.6586 12.189 43.2442 12.189 42.733Z" fill="#E3B983"/>
<path fill-rule="evenodd" clip-rule="evenodd" d="M24.8522 19.5933C25.2429 19.5933 25.5876 19.8403 25.7432 20.1987C25.753 20.2212 25.7628 20.2437 25.7728 20.2661C26.4498 22.1735 27.6957 24.7569 30.1042 27.7524C31.5767 29.5837 32.6995 30.8408 33.5027 31.6666C34.3281 32.5152 35.569 32.4638 36.3975 31.6182C37.35 30.6462 38.5696 29.2994 39.7448 27.7524C41.9527 24.8458 43.2794 22.8201 44.2442 20.22C44.3824 19.8477 44.7334 19.5933 45.1306 19.5933H47.3613C47.8725 19.5933 48.2869 20.0077 48.2869 20.5189V42.733C48.2869 43.2442 47.8725 43.6586 47.3613 43.6586H31.2353C30.9045 43.6586 30.5988 43.4821 30.4335 43.1956L17.6177 20.9814C17.2617 20.3643 17.707 19.5933 18.4194 19.5933H24.8522Z" fill="#E3B983"/>
</svg>
