<svg width="60" height="60" viewBox="0 0 60 60" fill="none" xmlns="http://www.w3.org/2000/svg">
<rect x="0.618896" y="0.618896" width="59.2378" height="59.2378" rx="14.8094" fill="#FFF8ED"/>
<path d="M14.1522 34.852L11.2632 23.2959L12.6516 22.8331C14.04 24.9928 17.5572 29.3123 20.5191 29.3123C23.481 29.3123 28.5409 22.2161 30.7006 18.668C32.3975 22.0618 36.6244 28.942 39.9565 29.3123C43.2886 29.6825 46.5899 25.1471 47.824 22.8331L49.6752 23.2959L46.3564 34.9116C46.1294 35.7063 45.403 36.2542 44.5765 36.2542H15.9481C15.0987 36.2542 14.3582 35.6761 14.1522 34.852Z" fill="#E3B983"/>
<rect x="14.5027" y="38.5681" width="31.4701" height="4.62795" rx="1.85118" fill="#E3B983"/>
<circle cx="12.1887" cy="22.3704" r="2.31398" fill="#E3B983"/>
<circle cx="30.7005" cy="18.668" r="2.31398" fill="#E3B983"/>
<circle cx="48.2869" cy="22.3704" r="2.31398" fill="#E3B983"/>
</svg>
