<svg width="60" height="60" viewBox="0 0 60 60" fill="none" xmlns="http://www.w3.org/2000/svg">
<rect x="0.618896" y="0.618896" width="59.2378" height="59.2378" rx="14.8094" fill="#FFF8ED"/>
<path fill-rule="evenodd" clip-rule="evenodd" d="M30.2378 45.9728C38.9281 45.9728 45.9729 38.9279 45.9729 30.2377C45.9729 21.5475 38.9281 14.5027 30.2378 14.5027C21.5476 14.5027 14.5028 21.5475 14.5028 30.2377C14.5028 38.9279 21.5476 45.9728 30.2378 45.9728ZM37.8373 26.2581C38.3836 25.7201 38.3904 24.8411 37.8524 24.2947C37.3144 23.7483 36.4354 23.7415 35.889 24.2795L27.6114 32.4301L23.7585 28.6364C23.2122 28.0984 22.3331 28.1052 21.7951 28.6516C21.2571 29.1979 21.2639 30.077 21.8103 30.615L26.6373 35.3679L27.6114 36.3271L28.5855 35.3679L37.8373 26.2581Z" fill="#E3B983"/>
</svg>
