<svg width="33" height="32" viewBox="0 0 33 32" fill="none" xmlns="http://www.w3.org/2000/svg">
<path fill-rule="evenodd" clip-rule="evenodd" d="M16.7495 28C23.3769 28 28.7495 22.6274 28.7495 16C28.7495 9.37258 23.3769 4 16.7495 4C10.1221 4 4.74951 9.37258 4.74951 16C4.74951 22.6274 10.1221 28 16.7495 28ZM18.099 9.40008C18.099 8.65481 17.4949 8.05065 16.7496 8.05065C16.0043 8.05065 15.4002 8.65481 15.4002 9.40008V16.0001C15.4002 16.358 15.5423 16.7012 15.7954 16.9543L19.3954 20.5543C19.9224 21.0813 20.7768 21.0813 21.3038 20.5543C21.8308 20.0273 21.8308 19.1729 21.3038 18.6459L18.099 15.4411V9.40008Z" fill="#E3B983"/>
</svg>
